<?xml version="1.0" encoding="UTF-8"?>
<svg width="43px" height="43px" viewBox="0 0 43 43" version="1.1" xmlns="http://www.w3.org/2000/svg" xmlns:xlink="http://www.w3.org/1999/xlink">
    <!-- Generator: Sketch 51.3 (57544) - http://www.bohemiancoding.com/sketch -->
    <title>whatwedo-infratec</title>
    <desc>Created with Sketch.</desc>
    <defs></defs>
    <g id="Home-Page" stroke="none" stroke-width="1" fill="none" fill-rule="evenodd">
        <g id="Home" transform="translate(-229.000000, -846.000000)">
            <g id="Group" transform="translate(132.000000, 695.000000)">
                <g id="Group-8" transform="translate(0.000000, 152.000000)">
                    <g id="whatwedo-infratec" transform="translate(98.000000, 0.000000)">
                        <path d="M40.394,20.197 C40.394,31.352 31.352,40.394 20.197,40.394 C9.043,40.394 0,31.352 0,20.197 C0,9.043 9.043,0 20.197,0 C31.352,0 40.394,9.043 40.394,20.197 L40.394,20.197 Z" id="Stroke-176" stroke="#3F8A8D" stroke-width="1.5"></path>
                        <path d="M30.0291502,22.1903487 C29.6401502,22.3953487 29.2201502,22.5503487 28.7771502,22.6473487 L29.2411502,31.3683487 L26.2001502,31.3683487 L26.6641502,22.6473487 C26.2211502,22.5503487 25.8011502,22.3953487 25.4121502,22.1903487 L24.9251502,31.3683487 L15.1541502,31.3683487 L14.6651502,22.1903487 C14.2761502,22.3953487 13.8561502,22.5503487 13.4141502,22.6473487 L13.8781502,31.3683487 L10.8381502,31.3683487 L11.3001502,22.6473487 C10.8581502,22.5503487 10.4391502,22.3953487 10.0491502,22.1903487 L9.56215016,31.3683487 L3.69515016,31.3683487 L3.69515016,32.6423487 L36.6111502,32.6423487 L36.6111502,31.3683487 L30.5161502,31.3683487 L30.0291502,22.1903487 Z M36.3491502,20.5913487 L31.1461502,17.0013487 C30.9631502,16.2243487 30.5241502,15.5453487 29.9201502,15.0603487 L29.3961502,8.54734871 C29.3311502,7.72034871 28.6831502,7.07134871 27.8551502,7.00534871 C26.9291502,6.93134871 26.1171502,7.63434871 26.0451502,8.54634871 L25.5221502,15.0593487 C24.9161502,15.5443487 24.4761502,16.2243487 24.2931502,17.0033487 L21.3011502,19.0663487 L21.8001502,19.4123487 C22.0041502,19.5523487 22.1841502,19.7153487 22.3451502,19.8933487 L24.2791502,18.5593487 C24.4021502,19.1233487 24.6611502,19.6373487 25.0181502,20.0653487 L22.9961502,21.0263487 C23.0361502,21.1523487 23.0711502,21.2813487 23.0951502,21.4133487 C23.1551502,21.7363487 23.1611502,22.0593487 23.1211502,22.3763487 L26.1301502,20.9473487 C26.6071502,21.1903487 27.1481502,21.3313487 27.7191502,21.3313487 C28.2931502,21.3313487 28.8331502,21.1903487 29.3121502,20.9473487 L34.6741502,23.4943487 C34.8971502,23.6003487 35.1461502,23.6573487 35.3951502,23.6573487 C35.9481502,23.6573487 36.4651502,23.3853487 36.7791502,22.9303487 C37.3061502,22.1673487 37.1131502,21.1183487 36.3491502,20.5913487 L36.3491502,20.5913487 Z M27.3151502,8.64834871 C27.3311502,8.43834871 27.5081502,8.27334871 27.7191502,8.27334871 L27.7531502,8.27534871 C27.9501502,8.29034871 28.1111502,8.45134871 28.1281502,8.64834871 L28.5891502,14.3983487 C28.3111502,14.3273487 28.0201502,14.2853487 27.7191502,14.2853487 C27.4201502,14.2853487 27.1301502,14.3263487 26.8521502,14.3973487 L27.3151502,8.64834871 Z M27.7191502,20.0573487 C26.4791502,20.0573487 25.4711502,19.0483487 25.4711502,17.8073487 C25.4711502,16.5673487 26.4791502,15.5583487 27.7191502,15.5583487 C28.9601502,15.5583487 29.9701502,16.5673487 29.9701502,17.8073487 C29.9701502,19.0483487 28.9601502,20.0573487 27.7191502,20.0573487 L27.7191502,20.0573487 Z M35.7301502,22.2063487 C35.6201502,22.3663487 35.3961502,22.4283487 35.2211502,22.3433487 L30.4221502,20.0643487 C30.7801502,19.6363487 31.0371502,19.1223487 31.1601502,18.5583487 L35.6271502,21.6403487 C35.8121502,21.7683487 35.8581502,22.0223487 35.7301502,22.2063487 L35.7301502,22.2063487 Z M27.7201502,16.9063487 C27.2221502,16.9063487 26.8181502,17.3103487 26.8181502,17.8083487 C26.8181502,18.3063487 27.2221502,18.7113487 27.7201502,18.7113487 C28.2201502,18.7113487 28.6231502,18.3063487 28.6231502,17.8083487 C28.6231502,17.3103487 28.2201502,16.9063487 27.7201502,16.9063487 L27.7201502,16.9063487 Z M12.3581502,21.3313487 C12.9301502,21.3313487 13.4701502,21.1903487 13.9481502,20.9473487 L19.3101502,23.4943487 C19.5341502,23.6003487 19.7831502,23.6573487 20.0321502,23.6573487 C20.5851502,23.6573487 21.1031502,23.3853487 21.4161502,22.9303487 C21.6721502,22.5603487 21.7671502,22.1133487 21.6861502,21.6713487 C21.6051502,21.2303487 21.3571502,20.8463487 20.9871502,20.5913487 L15.7841502,17.0013487 C15.6011502,16.2243487 15.1601502,15.5453487 14.5561502,15.0603487 L14.0341502,8.54834871 C13.9691502,7.72034871 13.3211502,7.07134871 12.4931502,7.00534871 C11.5651502,6.93234871 10.7551502,7.63434871 10.6821502,8.54634871 L10.1581502,15.0593487 C9.55415016,15.5443487 9.11215016,16.2243487 8.93115016,17.0033487 L3.72915016,20.5913487 C3.04515016,21.0613487 2.80815016,21.9463487 3.16515016,22.6963487 C3.44115016,23.2803487 4.03715016,23.6573487 4.68415016,23.6573487 C4.93415016,23.6573487 5.17815016,23.6013487 5.40415016,23.4943487 L10.7661502,20.9473487 C11.2451502,21.1903487 11.7841502,21.3313487 12.3581502,21.3313487 L12.3581502,21.3313487 Z M15.7971502,18.5583487 L20.2631502,21.6403487 C20.3531502,21.7023487 20.4131502,21.7943487 20.4341502,21.9013487 C20.4531502,22.0083487 20.4301502,22.1173487 20.3681502,22.2063487 C20.2581502,22.3663487 20.0351502,22.4283487 19.8571502,22.3433487 L15.0601502,20.0643487 C15.4181502,19.6363487 15.6751502,19.1223487 15.7971502,18.5583487 L15.7971502,18.5583487 Z M4.85715016,22.3443487 C4.65915016,22.4393487 4.40815016,22.3473487 4.31515016,22.1503487 C4.23015016,21.9713487 4.28915016,21.7523487 4.45115016,21.6403487 L8.91715016,18.5603487 C9.04115016,19.1233487 9.29815016,19.6373487 9.65615016,20.0653487 L4.85715016,22.3443487 Z M11.9511502,8.64834871 C11.9691502,8.43834871 12.1461502,8.27334871 12.3571502,8.27334871 L12.3911502,8.27534871 C12.5881502,8.29034871 12.7491502,8.45134871 12.7641502,8.64834871 L13.2261502,14.3983487 C12.9481502,14.3273487 12.6581502,14.2853487 12.3581502,14.2853487 C12.0581502,14.2853487 11.7681502,14.3263487 11.4901502,14.3973487 L11.9511502,8.64834871 Z M12.3581502,15.5583487 C13.5981502,15.5583487 14.6071502,16.5673487 14.6071502,17.8073487 C14.6071502,19.0483487 13.5981502,20.0573487 12.3581502,20.0573487 C11.1171502,20.0573487 10.1071502,19.0483487 10.1071502,17.8073487 C10.1071502,16.5673487 11.1171502,15.5583487 12.3581502,15.5583487 L12.3581502,15.5583487 Z M12.3581502,18.7113487 C12.8571502,18.7113487 13.2601502,18.3063487 13.2601502,17.8083487 C13.2601502,17.3103487 12.8571502,16.9063487 12.3581502,16.9063487 C11.8601502,16.9063487 11.4551502,17.3103487 11.4551502,17.8083487 C11.4551502,18.3063487 11.8601502,18.7113487 12.3581502,18.7113487 L12.3581502,18.7113487 Z" id="Fill-178" fill="#3F8A8D"></path>
                    </g>
                </g>
            </g>
        </g>
    </g>
</svg>